# xmcd database file
#
# Track frame offsets:
# 150
# 12241
# 29062
# 44823
# 60687
# 74701
# 89371
# 105350
# 124890
# 136542
# 154413
# 166134
# 179859
#
# Disc length: 2544 seconds
#
# Revision: 0
# Processed by: cddbd v1.5.2PL0 Copyright (c) Steve Scherf et al.
# Submitted via: CD-Runner 2006.50
#
DISCID=bd09ee0d
DTITLE=Nadine Blom - Veer
DYEAR=1900
DGENRE=
TTITLE0=Gin
TTITLE1=This is Me
TTITLE2=Potchefstroom
TTITLE3=Veer
TTITLE4=Jy is in die Reen
TTITLE5=Raaisels
TTITLE6=Meermin
TTITLE7=Dindi
TTITLE8=Tot Laat
TTITLE9=Bly
TTITLE10=Danny Boy
TTITLE11=Wegkomkans
TTITLE12=St.Tuiglik
EXTD=
EXTT0=
EXTT1=
EXTT2=
EXTT3=
EXTT4=
EXTT5=
EXTT6=
EXTT7=
EXTT8=
EXTT9=
EXTT10=
EXTT11=
EXTT12=
PLAYORDER=
